<svg width="30" height="30" viewBox="0 0 30 30" fill="none" xmlns="http://www.w3.org/2000/svg">
<path d="M8.3214 25.586C7.97593 25.5853 7.63658 25.4948 7.33672 25.3232C6.66151 24.9406 6.24176 24.1978 6.24176 23.3915V7.07398C6.24176 6.26542 6.66151 5.52494 7.33672 5.14232C7.64372 4.96589 7.99247 4.87516 8.34653 4.87961C8.70059 4.88407 9.04695 4.98354 9.34941 5.16764L23.2953 13.5155C23.5859 13.6977 23.8255 13.9508 23.9916 14.251C24.1577 14.5511 24.2448 14.8886 24.2448 15.2316C24.2448 15.5747 24.1577 15.9121 23.9916 16.2123C23.8255 16.5125 23.5859 16.7655 23.2953 16.9478L9.34716 25.2979C9.03763 25.485 8.6831 25.5846 8.3214 25.586Z" fill="#E1E1E6"/>
</svg>
