<svg width="29" height="30" viewBox="0 0 29 30" fill="none" xmlns="http://www.w3.org/2000/svg">
<g clip-path="url(#clip0_42_51)">
<path d="M27.1427 13.7397L16.5154 7.38148C16.2525 7.22151 15.9515 7.13508 15.6438 7.13122C15.336 7.12736 15.0329 7.20621 14.7661 7.35953C14.4766 7.52813 14.2368 7.77035 14.0712 8.06158C13.9055 8.35282 13.8199 8.68271 13.823 9.01773V13.4657L3.6544 7.37979C3.39149 7.21982 3.09045 7.13339 2.78272 7.12953C2.475 7.12567 2.17188 7.20452 1.90504 7.35784C1.61551 7.52644 1.37576 7.76866 1.21013 8.0599C1.0445 8.35113 0.958891 8.68102 0.962001 9.01604V21.4511C0.958791 21.7863 1.04435 22.1163 1.20999 22.4076C1.37562 22.6989 1.61543 22.9413 1.90504 23.1099C2.17188 23.2632 2.475 23.3421 2.78272 23.3382C3.09045 23.3344 3.39149 23.2479 3.6544 23.088L13.823 16.9993V21.4489C13.8194 21.7844 13.9048 22.1149 14.0705 22.4066C14.2361 22.6984 14.4761 22.9411 14.7661 23.1099C15.0329 23.2632 15.336 23.3421 15.6438 23.3382C15.9515 23.3344 16.2525 23.2479 16.5154 23.088L27.1427 16.7297C27.3953 16.5715 27.6036 16.3516 27.748 16.0908C27.8923 15.83 27.9681 15.5368 27.9681 15.2387C27.9681 14.9405 27.8923 14.6473 27.748 14.3865C27.6036 14.1257 27.3953 13.9058 27.1427 13.7476V13.7397Z" fill="#E1E1E6"/>
</g>
<defs>
<clipPath id="clip0_42_51">
<rect width="28.8089" height="28.8089" fill="white" transform="translate(0.0612793 0.828369)"/>
</clipPath>
</defs>
</svg>
