<svg width="54" height="54" viewBox="0 0 54 54" fill="none" xmlns="http://www.w3.org/2000/svg">
<g clip-path="url(#clip0_508_2)">
<path fill-rule="evenodd" clip-rule="evenodd" d="M27 4.5C39.4267 4.5 49.5 14.5733 49.5 27C49.5 39.4267 39.4267 49.5 27 49.5C14.5733 49.5 4.5 39.4267 4.5 27C4.5 14.5733 14.5733 4.5 27 4.5ZM31.464 32.0625C30.2715 33.1155 28.7122 33.75 27 33.75C25.3562 33.7498 23.7689 33.1498 22.536 32.0625C22.0884 31.6675 21.5023 31.4664 20.9065 31.5035C20.3107 31.5407 19.754 31.8129 19.359 32.2605C18.964 32.7081 18.7629 33.2942 18.8 33.89C18.8372 34.4858 19.1094 35.0425 19.557 35.4375C21.6126 37.2503 24.2592 38.2504 27 38.25C29.7415 38.2546 32.3896 37.254 34.443 35.4375C34.8906 35.0425 35.1628 34.4858 35.2 33.89C35.2371 33.2942 35.036 32.7081 34.641 32.2605C34.246 31.8129 33.6893 31.5407 33.0935 31.5035C32.4977 31.4664 31.9116 31.6675 31.464 32.0625ZM19.125 18C16.6792 18 14.7195 19.53 13.7385 21.492C13.4806 22.0053 13.4288 22.5978 13.5938 23.1481C13.7587 23.6984 14.1278 24.1647 14.6256 24.4515C15.1233 24.7384 15.7119 24.824 16.2707 24.6908C16.8295 24.5576 17.3162 24.2157 17.631 23.7352L17.7615 23.508C18.126 22.779 18.684 22.5 19.125 22.5C19.5075 22.5 19.9845 22.7138 20.3423 23.256L20.4885 23.508C20.7586 24.0367 21.2267 24.4373 21.7909 24.6223C22.355 24.8074 22.9694 24.762 23.5002 24.496C24.031 24.23 24.4352 23.765 24.6246 23.2023C24.814 22.6396 24.7734 22.0248 24.5115 21.492C23.5283 19.53 21.5708 18 19.125 18ZM34.875 18C32.4292 18 30.4717 19.53 29.4885 21.492C29.2306 22.0053 29.1788 22.5978 29.3438 23.1481C29.5087 23.6984 29.8778 24.1647 30.3756 24.4515C30.8733 24.7384 31.4619 24.824 32.0207 24.6908C32.5795 24.5576 33.0662 24.2157 33.381 23.7352L33.5115 23.508C33.876 22.779 34.434 22.5 34.875 22.5C35.2575 22.5 35.7345 22.7138 36.0923 23.256L36.2385 23.508C36.3695 23.7745 36.5519 24.0124 36.7753 24.2081C36.9986 24.4037 37.2585 24.5533 37.5399 24.648C37.8214 24.7427 38.1188 24.7808 38.415 24.7601C38.7112 24.7393 39.0004 24.6602 39.2658 24.5271C39.5313 24.3941 39.7678 24.2098 39.9617 23.985C40.1557 23.7601 40.3032 23.4991 40.3957 23.2169C40.4883 22.9348 40.5241 22.6371 40.501 22.341C40.478 22.045 40.3966 21.7564 40.2615 21.492C39.2805 19.53 37.3208 18 34.875 18Z" fill="url(#paint0_linear_508_2)"/>
</g>
<defs>
<linearGradient id="paint0_linear_508_2" x1="27" y1="4.5" x2="27" y2="49.5" gradientUnits="userSpaceOnUse">
<stop stop-color="#81FBB8"/>
<stop offset="1" stop-color="#28C76F"/>
</linearGradient>
<clipPath id="clip0_508_2">
<rect width="54" height="54" fill="white"/>
</clipPath>
</defs>
</svg>
