<svg width="54" height="54" viewBox="0 0 54 54" fill="none" xmlns="http://www.w3.org/2000/svg">
<g clip-path="url(#clip0_508_6)">
<path fill-rule="evenodd" clip-rule="evenodd" d="M27 4.5C39.4267 4.5 49.5 14.5733 49.5 27C49.5 39.4267 39.4267 49.5 27 49.5C14.5733 49.5 4.5 39.4267 4.5 27C4.5 14.5733 14.5733 4.5 27 4.5ZM27 29.25C24.26 29.2501 21.6142 30.2502 19.5592 32.0625C19.1117 32.4572 18.8393 33.0136 18.8019 33.6092C18.7646 34.2048 18.9654 34.7908 19.3601 35.2384C19.7549 35.6859 20.3112 35.9583 20.9068 35.9957C21.5024 36.033 22.0884 35.8322 22.536 35.4375C23.7689 34.3502 25.3562 33.7502 27 33.75C28.6446 33.746 30.2333 34.3466 31.464 35.4375C31.9116 35.8325 32.4977 36.0336 33.0935 35.9965C33.6893 35.9593 34.246 35.6871 34.641 35.2395C35.036 34.7919 35.2371 34.2058 35.2 33.61C35.1628 33.0142 34.8906 32.4575 34.443 32.0625C32.3874 30.2497 29.7408 29.2496 27 29.25ZM19.125 18C18.2299 18 17.3714 18.3556 16.7385 18.9885C16.1056 19.6214 15.75 20.4799 15.75 21.375C15.75 22.2701 16.1056 23.1286 16.7385 23.7615C17.3714 24.3944 18.2299 24.75 19.125 24.75C20.0201 24.75 20.8786 24.3944 21.5115 23.7615C22.1444 23.1286 22.5 22.2701 22.5 21.375C22.5 20.4799 22.1444 19.6214 21.5115 18.9885C20.8786 18.3556 20.0201 18 19.125 18ZM34.875 18C33.9799 18 33.1214 18.3556 32.4885 18.9885C31.8556 19.6214 31.5 20.4799 31.5 21.375C31.5 22.2701 31.8556 23.1286 32.4885 23.7615C33.1214 24.3944 33.9799 24.75 34.875 24.75C35.7701 24.75 36.6285 24.3944 37.2615 23.7615C37.8944 23.1286 38.25 22.2701 38.25 21.375C38.25 20.4799 37.8944 19.6214 37.2615 18.9885C36.6285 18.3556 35.7701 18 34.875 18Z" fill="url(#paint0_linear_508_6)"/>
</g>
<defs>
<linearGradient id="paint0_linear_508_6" x1="27" y1="4.5" x2="27" y2="49.5" gradientUnits="userSpaceOnUse">
<stop stop-color="#EB7B7C"/>
<stop offset="1" stop-color="#EA5455"/>
</linearGradient>
<clipPath id="clip0_508_6">
<rect width="54" height="54" fill="white"/>
</clipPath>
</defs>
</svg>
